<svg xmlns="http://www.w3.org/2000/svg" fill="none" viewBox="0 0 144 144" width="144" height="144">
<circle fill="#fdfd96" cx="72" cy="72" r="72" />
<path fill="#2c40a5" d="M 71.7003 39.4671 C 71.7003 39.4671 71.7963 41.0677 71.9883 44.2688 C 72.1755 47.4696 72.2784 51.5832 72.297 56.6096 C 72.316 61.6311 72.2997 67.0031 72.2481 72.7255 C 72.196 78.4529 72.0511 83.6908 71.8132 88.4391 C 71.5804 93.1829 71.4398 96.9794 71.3913 99.8286 C 71.3427 102.678 71.3817 104.905 71.5081 106.511 C 71.6346 108.117 71.6792 109.051 71.6421 109.313 C 71.6045 109.581 71.5276 109.835 71.4115 110.076 C 71.2958 110.311 71.1464 110.524 70.9634 110.714 C 70.7851 110.904 70.5812 111.059 70.3519 111.179 C 70.123 111.295 69.8808 111.371 69.6253 111.409 C 69.375 111.443 69.1261 111.434 68.8784 111.382 C 68.6303 111.335 68.3956 111.244 68.1742 111.11 C 67.9528 110.975 67.7603 110.81 67.5965 110.616 C 67.4284 110.415 67.2957 110.191 67.1985 109.942 C 67.1008 109.697 67.0423 109.442 67.0228 109.174 C 67.0033 108.907 67.0263 108.643 67.0917 108.383 C 67.1572 108.123 67.2592 107.881 67.3976 107.657 C 67.5361 107.434 67.7054 107.238 67.9056 107.07 C 68.1058 106.901 68.3263 106.773 68.5672 106.683 C 68.8038 106.589 69.0484 106.54 69.3008 106.537 C 69.5583 106.529 69.8075 106.563 70.0483 106.64 C 70.2886 106.721 70.5113 106.84 70.7163 106.999 C 70.9218 107.152 71.0983 107.338 71.2457 107.556 C 71.3885 107.774 71.4962 108.012 71.569 108.269 C 71.6417 108.526 71.6737 108.787 71.6648 109.052 C 71.6556 109.322 71.6045 109.581 71.5115 109.829 C 71.4229 110.082 71.2982 110.312 71.1374 110.518 C 70.9762 110.73 70.7872 110.906 70.5703 111.048 C 70.3534 111.189 70.1232 111.292 69.8797 111.356 C 69.6316 111.42 69.38 111.441 69.125 111.418 C 68.8748 111.397 68.6329 111.333 68.3995 111.227 C 68.1661 111.122 67.955 110.978 67.7663 110.796 C 67.5819 110.619 67.4284 110.415 67.3058 110.184 C 67.1837 109.948 67.0983 109.7 67.0496 109.44 C 67.006 109.175 66.9842 109.043 66.9842 109.043 C 66.9842 109.043 67.0228 108.219 67.0998 106.571 C 67.1769 104.922 67.2181 102.649 67.2233 99.7511 C 67.2242 96.8477 67.3099 93.0539 67.4803 88.3699 C 67.6551 83.6912 67.7242 78.5044 67.6878 72.8094 C 67.6561 67.1148 67.5777 61.8199 67.4525 56.9245 C 67.3222 52.0338 67.0821 47.9934 66.7321 44.8036 C 66.3865 41.6192 66.2168 39.9094 66.223 39.6742 C 66.2284 39.449 66.2623 39.2238 66.3247 38.9985 C 66.3825 38.7729 66.4655 38.557 66.5739 38.3508 C 66.687 38.145 66.8198 37.9585 66.9723 37.7913 C 67.1253 37.619 67.2931 37.4682 67.4756 37.3387 C 67.6629 37.2096 67.8622 37.1066 68.0735 37.0297 C 68.2847 36.9528 68.5007 36.904 68.7214 36.8831 C 68.9425 36.8572 69.1586 36.861 69.3698 36.8945 C 69.5904 36.9288 69.8039 36.99 70.0103 37.0782 C 70.212 37.166 70.4021 37.2778 70.5805 37.4137 C 70.759 37.5496 70.9187 37.709 71.0598 37.8918 C 71.2013 38.0696 71.32 38.263 71.416 38.472 C 71.5167 38.6813 71.5882 38.8982 71.6305 39.1225 C 71.677 39.3523 71.7003 39.4671 71.7003 39.4671 Z" />
<path fill="#2c40a5" d="M 23.5006 71.3272 C 23.5006 71.3272 25.0043 71.5686 28.0118 72.0514 C 31.024 72.5346 34.9526 72.9021 39.7976 73.154 C 44.6426 73.4058 50.4468 73.2974 57.21 72.8288 C 63.9681 72.3648 71.1082 71.6658 78.6304 70.7318 C 86.1475 69.8024 93.235 68.8606 99.8931 67.9064 C 106.546 66.9568 111.825 66.1859 115.73 65.5935 C 119.631 65.0008 122.782 64.6862 125.183 64.6497 C 127.579 64.6129 128.876 64.6583 129.074 64.7859 C 129.272 64.9135 129.447 65.0716 129.597 65.2602 C 129.742 65.4434 129.858 65.649 129.943 65.8771 C 130.027 66.1051 130.076 66.3425 130.087 66.5893 C 130.094 66.8356 130.066 67.0764 130.003 67.3116 C 129.94 67.5468 129.842 67.7664 129.71 67.9706 C 129.578 68.1747 129.418 68.3488 129.229 68.4928 C 129.04 68.6418 128.835 68.7568 128.614 68.8379 C 128.393 68.9139 128.166 68.9518 127.933 68.9515 C 127.7 68.9513 127.475 68.9116 127.259 68.8325 C 127.037 68.7531 126.835 68.6402 126.653 68.4939 C 126.466 68.3422 126.31 68.1657 126.185 67.9642 C 126.055 67.7623 125.96 67.5434 125.9 67.3075 C 125.84 67.0715 125.818 66.8314 125.834 66.5871 C 125.846 66.3424 125.898 66.1062 125.989 65.8785 C 126.075 65.6503 126.196 65.4426 126.35 65.2555 C 126.5 65.0679 126.675 64.9102 126.877 64.7824 C 127.078 64.6595 127.292 64.5704 127.521 64.5151 C 127.749 64.4647 127.978 64.4521 128.209 64.4773 C 128.44 64.5024 128.66 64.5668 128.87 64.6703 C 129.08 64.7738 129.27 64.9108 129.441 65.0811 C 129.607 65.2511 129.742 65.4434 129.847 65.6582 C 129.957 65.8783 130.029 66.1078 130.066 66.3467 C 130.097 66.5901 130.092 66.8329 130.052 67.0751 C 130.012 67.3174 129.937 67.5466 129.828 67.7627 C 129.719 67.9788 129.579 68.1697 129.407 68.3353 C 129.235 68.5059 129.043 68.642 128.829 68.7438 C 128.62 68.8459 128.398 68.9118 128.163 68.9414 C 127.932 68.9665 127.705 68.9517 127.481 68.8971 C 127.253 68.8471 127.138 68.822 127.138 68.822 C 127.138 68.822 126.303 68.8245 124.633 68.8293 C 122.967 68.8395 120.177 69.158 116.264 69.7848 C 112.356 70.412 107.064 71.2244 100.388 72.2221 C 93.7118 73.2149 86.5815 74.2106 78.9966 75.2094 C 71.4069 76.2077 64.1532 76.982 57.2353 77.5324 C 50.3127 78.0824 44.3534 78.28 39.3572 78.1254 C 34.3605 77.9756 30.3472 77.7336 27.3173 77.3993 C 24.2963 77.0708 22.6814 76.8774 22.4724 76.819 C 22.2629 76.7657 22.0653 76.6857 21.8795 76.5793 C 21.689 76.4724 21.5149 76.3419 21.357 76.1877 C 21.1988 76.0385 21.0611 75.8711 20.9441 75.6853 C 20.8224 75.4992 20.7255 75.3002 20.6536 75.0883 C 20.5817 74.8765 20.5342 74.6567 20.5113 74.429 C 20.4879 74.2063 20.4904 73.9859 20.519 73.7677 C 20.5479 73.5446 20.6026 73.3262 20.6831 73.1126 C 20.7632 72.9039 20.8659 72.7072 20.9914 72.5226 C 21.1122 72.3376 21.2553 72.1695 21.4208 72.0184 C 21.581 71.8719 21.7584 71.747 21.953 71.6436 C 22.1428 71.5398 22.3425 71.4594 22.552 71.4024 C 22.7611 71.3505 22.9726 71.3263 23.1864 71.3299 C 23.3958 71.3281 23.5006 71.3272 23.5006 71.3272 Z" />
<path fill="#2c40a5" d="M 48.313 42.0246 C 48.313 42.0246 47.2851 43.2012 45.2293 45.5545 C 43.1683 47.9123 41.2291 50.183 39.4117 52.3665 C 37.599 54.5504 35.9033 56.4562 34.3247 58.0838 C 32.7512 59.7068 31.6017 60.9681 30.8763 61.8677 C 30.1508 62.7673 29.5307 63.5508 29.0158 64.218 C 28.4962 64.8848 28.1116 65.3126 27.862 65.5015 C 27.6124 65.6904 27.3408 65.8322 27.0471 65.9269 C 26.7486 66.0213 26.4477 66.0627 26.1442 66.0513 C 25.8355 66.0445 25.5385 65.986 25.2532 65.8759 C 24.9682 65.7608 24.7061 65.6025 24.4667 65.4011 C 24.2321 65.2001 24.034 64.9622 23.8724 64.6874 C 23.7057 64.4171 23.5885 64.1235 23.521 63.8067 C 23.4483 63.4945 23.4259 63.1791 23.4536 62.8606 C 23.4818 62.5371 23.5587 62.2278 23.6843 61.9329 C 23.8057 61.6325 23.9718 61.3637 24.1828 61.1263 C 24.3895 60.8836 24.6258 60.6835 24.8917 60.5261 C 25.1623 60.3692 25.4476 60.2612 25.7477 60.2021 C 26.0483 60.138 26.3512 60.1293 26.6563 60.176 C 26.9572 60.2173 27.2441 60.31 27.517 60.4541 C 27.7946 60.5987 28.04 60.7855 28.2531 61.0147 C 28.4663 61.2439 28.6388 61.5022 28.7708 61.7895 C 28.907 62.0822 28.9945 62.3882 29.0333 62.7075 C 29.072 63.0269 29.061 63.3443 29.0002 63.66 C 28.9394 63.9756 28.8301 64.2745 28.6723 64.5566 C 28.5192 64.8392 28.3286 65.0883 28.1004 65.3041 C 27.8676 65.5195 27.6101 65.6902 27.3279 65.816 C 27.0458 65.9419 26.7512 66.019 26.4443 66.0474 C 26.1377 66.0708 25.8379 66.0447 25.5448 65.969 C 25.2474 65.8879 24.9706 65.761 24.7145 65.5882 C 24.4584 65.4154 24.2343 65.2028 24.0422 64.9504 C 23.8548 64.6984 23.7102 64.42 23.6083 64.1152 C 23.5017 63.81 23.4457 63.4968 23.4405 63.1753 C 23.4352 62.8539 23.4792 62.5393 23.5727 62.2316 C 23.6661 61.9238 23.8052 61.6375 23.9901 61.3728 C 24.1698 61.1126 24.2596 60.9826 24.2596 60.9826 C 24.2596 60.9826 24.5781 60.7119 25.2153 60.1707 C 25.8567 59.6349 26.5995 59.0001 27.4437 58.2663 C 28.2831 57.5321 29.41 56.3665 30.8242 54.7697 C 32.2384 53.1729 33.8096 51.2212 35.5379 48.9146 C 37.2661 46.608 39.0901 44.2119 41.01 41.7265 C 42.9251 39.2406 43.9708 37.915 44.1469 37.7498 C 44.3235 37.5797 44.5168 37.4361 44.7268 37.319 C 44.9326 37.1965 45.1499 37.1051 45.3787 37.0448 C 45.608 36.9796 45.8418 36.9448 46.08 36.9405 C 46.3088 36.9353 46.5398 36.9605 46.7728 37.0159 C 47.0011 37.0709 47.2198 37.1552 47.4287 37.2687 C 47.6377 37.3821 47.8327 37.5195 48.0137 37.6807 C 48.19 37.8415 48.3454 38.0231 48.48 38.2253 C 48.6193 38.4281 48.7312 38.6459 48.8155 38.8789 C 48.9003 39.107 48.9581 39.3452 48.9887 39.5936 C 49.0199 39.837 49.0224 40.0805 48.9964 40.3239 C 48.97 40.5724 48.9157 40.8134 48.8335 41.0469 C 48.7513 41.2805 48.644 41.5018 48.5116 41.7109 C 48.3792 41.92 48.313 42.0246 48.313 42.0246 Z" />
<path fill="#2c40a5" d="M 25.6279 41.356 C 25.6279 41.356 26.4628 41.8199 28.1327 42.7478 C 29.8073 43.6761 31.7532 44.6305 33.9704 45.6111 C 36.1918 46.5971 38.4457 47.5934 40.732 48.6001 C 43.0182 49.6068 45.0083 50.5726 46.7022 51.4976 C 48.4009 52.4229 49.9651 53.1711 51.3949 53.742 C 52.8295 54.3134 53.6632 54.682 53.8962 54.8477 C 54.1296 55.0084 54.3311 55.2066 54.5009 55.442 C 54.6711 55.6725 54.8033 55.9297 54.8975 56.2138 C 54.9874 56.4924 55.0313 56.7796 55.0294 57.0753 C 55.0321 57.3714 54.9878 57.6609 54.8966 57.9438 C 54.81 58.2271 54.6825 58.4893 54.514 58.7304 C 54.3412 58.966 54.138 59.169 53.9043 59.3392 C 53.6753 59.5098 53.4241 59.6358 53.1506 59.7173 C 52.8818 59.7992 52.6051 59.8352 52.3205 59.8255 C 52.041 59.8111 51.7704 59.7499 51.5087 59.6419 C 51.2465 59.5388 51.0071 59.3925 50.7905 59.2031 C 50.5738 59.0137 50.3933 58.7924 50.2489 58.5391 C 50.1045 58.2858 49.9995 58.0159 49.9341 57.7294 C 49.8739 57.4383 49.8589 57.1461 49.8892 56.8529 C 49.92 56.5547 49.9947 56.2703 50.1134 55.9998 C 50.2274 55.7289 50.382 55.4841 50.5771 55.2655 C 50.7722 55.0468 50.9923 54.8679 51.2376 54.7288 C 51.488 54.5851 51.751 54.4877 52.0266 54.4365 C 52.307 54.3857 52.5856 54.3824 52.8624 54.4266 C 53.1393 54.4708 53.4026 54.5614 53.6523 54.6985 C 53.9024 54.8307 54.1253 55.0031 54.3208 55.2157 C 54.516 55.4333 54.6733 55.6752 54.7928 55.9413 C 54.9123 56.2075 54.9878 56.4874 55.0193 56.781 C 55.0504 57.0796 55.0342 57.3741 54.9709 57.6644 C 54.9122 57.9552 54.81 58.2271 54.6643 58.4802 C 54.5228 58.7386 54.3438 58.9638 54.1273 59.1555 C 53.915 59.3526 53.6779 59.5075 53.416 59.6201 C 53.154 59.7326 52.8818 59.7992 52.5993 59.8197 C 52.3168 59.8402 52.041 59.8111 51.7719 59.7325 C 51.4977 59.6584 51.3606 59.6214 51.3606 59.6214 C 51.3606 59.6214 50.6432 59.2279 49.2084 58.4409 C 47.7736 57.6539 46.2848 56.832 44.7419 55.9754 C 43.1943 55.1184 41.2604 54.2452 38.9401 53.3559 C 36.6198 52.4666 34.2521 51.5757 31.837 50.6832 C 29.427 49.7861 27.3556 48.9335 25.623 48.1256 C 23.8954 47.313 22.9352 46.8407 22.7421 46.7085 C 22.5443 46.5759 22.3652 46.4199 22.2049 46.2404 C 22.0445 46.061 21.9049 45.8607 21.7862 45.6398 C 21.6718 45.4242 21.5844 45.1984 21.5241 44.9625 C 21.4643 44.7216 21.4308 44.4779 21.4237 44.2316 C 21.4162 43.9902 21.4375 43.7464 21.4875 43.5 C 21.5418 43.259 21.6191 43.0275 21.7193 42.8056 C 21.8247 42.5791 21.9547 42.3697 22.1094 42.1776 C 22.259 41.9901 22.4283 41.8218 22.6173 41.6728 C 22.811 41.5242 23.0168 41.4017 23.2345 41.3053 C 23.4522 41.209 23.6768 41.1433 23.9082 41.1083 C 24.1448 41.0687 24.3764 41.0588 24.603 41.0786 C 24.8391 41.0992 25.0679 41.1492 25.2893 41.2287 C 25.515 41.3136 25.6279 41.356 25.6279 41.356 Z" />
<path fill="#2c40a5" d="M 100.526 43.5096 C 100.526 43.5096 99.4887 44.1714 97.4132 45.4949 C 95.333 46.818 93.8694 48.0269 93.0223 49.1215 C 92.1747 50.2211 92.0955 51.1845 92.7846 52.0119 C 93.4737 52.8392 94.5038 53.438 95.875 53.8083 C 97.2368 54.1777 99.0821 54.5116 101.411 54.8099 C 103.745 55.1086 105.823 55.1143 107.647 54.8269 C 109.471 54.5345 110.555 53.6913 110.9 52.2972 C 111.241 50.9026 110.996 49.5624 110.166 48.2765 C 109.336 46.9955 108.097 45.4884 106.45 43.7551 C 104.797 42.0264 103.292 40.6289 101.934 39.5628 C 100.576 38.4916 99.5617 37.8766 98.8904 37.7178 C 98.2149 37.5536 97.7385 37.4795 97.4611 37.4954 C 97.1838 37.5114 96.9108 37.4775 96.6422 37.3939 C 96.3778 37.3157 96.1315 37.194 95.9033 37.0287 C 95.6798 36.8637 95.4855 36.6638 95.3205 36.4287 C 95.1554 36.1937 95.0301 35.9395 94.9445 35.6663 C 94.8593 35.3881 94.8198 35.1038 94.8261 34.8135 C 94.8328 34.5182 94.8814 34.2341 94.9718 33.9611 C 95.0626 33.6832 95.1942 33.4289 95.3666 33.1982 C 95.5389 32.9675 95.7417 32.7695 95.975 32.6043 C 96.2031 32.4437 96.4513 32.3249 96.7197 32.248 C 96.988 32.1711 97.2617 32.1423 97.5407 32.1616 C 97.815 32.1805 98.0807 32.2438 98.3377 32.3514 C 98.5943 32.464 98.8262 32.6146 99.0334 32.8032 C 99.2405 32.9918 99.414 33.2125 99.5537 33.4654 C 99.6887 33.7179 99.7842 33.987 99.8401 34.2727 C 99.8961 34.5584 99.9068 34.8452 99.8722 35.133 C 99.8371 35.4258 99.7583 35.7023 99.6357 35.9624 C 99.5175 36.2279 99.3636 36.4652 99.1741 36.6744 C 98.9794 36.8881 98.7597 37.062 98.5149 37.1961 C 98.2653 37.3298 98.0053 37.42 97.7348 37.4666 C 97.4596 37.5128 97.1862 37.5116 96.9145 37.4628 C 96.6381 37.4137 96.38 37.3184 96.1401 37.1772 C 95.8951 37.0405 95.6796 36.8662 95.4935 36.6544 C 95.3078 36.4377 95.1575 36.1964 95.0427 35.9306 C 94.9327 35.6653 94.864 35.3885 94.8368 35.1003 C 94.81 34.8071 94.8305 34.518 94.8981 34.233 C 94.9606 33.9526 95.0648 33.6859 95.2105 33.4328 C 95.3558 33.1847 95.5366 32.9673 95.7526 32.7805 C 95.964 32.5933 96.2005 32.4459 96.462 32.3384 C 96.7184 32.2353 96.8466 32.1838 96.8466 32.1838 C 96.8466 32.1838 97.8452 32.4614 99.8426 33.0167 C 101.839 33.5769 103.59 34.4566 105.093 35.6558 C 106.597 36.855 108.354 38.4425 110.366 40.4181 C 112.378 42.3888 113.965 44.4303 115.127 46.5425 C 116.289 48.6548 116.746 50.6779 116.496 52.612 C 116.246 54.551 115.337 56.1416 113.768 57.3839 C 112.195 58.6209 110.248 59.4792 107.927 59.9589 C 105.601 60.4432 103.079 60.5894 100.36 60.3976 C 97.6457 60.2111 95.2091 59.7555 93.0505 59.0307 C 90.8971 58.3014 89.2637 57.146 88.1503 55.5646 C 87.0327 53.9778 86.6571 52.2275 87.0238 50.3137 C 87.3857 48.3995 88.2078 46.6909 89.4902 45.1879 C 90.7729 43.6799 92.4118 42.1804 94.4067 40.6894 C 96.4016 39.1984 97.5037 38.3993 97.7128 38.2922 C 97.922 38.185 98.1384 38.1036 98.3621 38.0479 C 98.5905 37.9926 98.8211 37.9675 99.0537 37.9728 C 99.277 37.9772 99.4999 38.0116 99.7227 38.0762 C 99.9454 38.1407 100.159 38.232 100.362 38.3501 C 100.562 38.4678 100.747 38.6093 100.918 38.7746 C 101.084 38.9396 101.23 39.1228 101.355 39.3243 C 101.485 39.5311 101.587 39.7482 101.662 39.9754 C 101.737 40.2076 101.786 40.445 101.807 40.6876 C 101.829 40.9302 101.822 41.1678 101.788 41.4005 C 101.752 41.6431 101.689 41.8783 101.598 42.1061 C 101.512 42.3293 101.401 42.5402 101.264 42.739 C 101.123 42.9373 100.965 43.1141 100.79 43.2693 C 100.614 43.4295 100.526 43.5096 100.526 43.5096 Z" />
<path fill="#2c40a5" d="M 34.6124 93.343 C 34.6124 93.343 34.0742 93.7047 32.9977 94.4283 C 31.926 95.1523 31.2798 96.5352 31.059 98.5771 C 30.8382 100.619 31.7269 102.294 33.7253 103.601 C 35.7284 104.909 37.7421 105.604 39.7665 105.685 C 41.7956 105.766 43.7716 105.558 45.6943 105.058 C 47.6171 104.559 49.0786 104.002 50.079 103.387 C 51.0742 102.777 50.9389 101.709 49.673 100.185 C 48.4072 98.6601 46.5507 97.3348 44.1036 96.2088 C 41.6565 95.0828 39.1674 94.1111 36.6362 93.2937 C 34.1141 92.4821 32.1005 91.9229 30.5953 91.6162 C 29.0901 91.3095 27.763 91.0609 26.614 90.8705 C 25.4646 90.6851 24.7571 90.5331 24.4915 90.4147 C 24.2254 90.3012 23.9843 90.1473 23.7681 89.9529 C 23.5571 89.754 23.3796 89.5254 23.2356 89.2671 C 23.092 89.0039 22.9927 88.7244 22.9376 88.4288 C 22.8825 88.1331 22.8729 87.8339 22.9088 87.5311 C 22.949 87.2337 23.031 86.9475 23.1549 86.6725 C 23.2835 86.3978 23.4475 86.1539 23.6469 85.9406 C 23.8514 85.7227 24.081 85.5446 24.3357 85.4063 C 24.5951 85.2685 24.8672 85.1769 25.1518 85.1315 C 25.4365 85.0861 25.7191 85.0906 25.9998 85.1452 C 26.281 85.1948 26.5483 85.2933 26.8019 85.4408 C 27.0511 85.5829 27.2731 85.7652 27.4678 85.9878 C 27.6578 86.2099 27.8097 86.4589 27.9237 86.7346 C 28.0419 87.0157 28.1118 87.3051 28.1334 87.6029 C 28.1593 87.906 28.138 88.2051 28.0695 88.5 C 28.001 88.7949 27.8913 89.0712 27.7403 89.3288 C 27.5847 89.5861 27.3963 89.8104 27.175 90.0017 C 26.9495 90.1876 26.7034 90.3367 26.4367 90.4488 C 26.1657 90.5556 25.8871 90.6141 25.6007 90.6242 C 25.314 90.6393 25.0339 90.6049 24.7605 90.5209 C 24.4829 90.4315 24.2278 90.3014 23.9953 90.1307 C 23.7576 89.9646 23.5543 89.7588 23.3854 89.5134 C 23.2212 89.2684 23.0946 89.0016 23.0056 88.713 C 22.9213 88.4248 22.8827 88.1306 22.8898 87.8303 C 22.897 87.5301 22.9488 87.2362 23.0452 86.9487 C 23.1416 86.6613 23.2809 86.4001 23.4632 86.1653 C 23.6411 85.925 23.8491 85.7225 24.087 85.5577 C 24.3301 85.3883 24.5906 85.2656 24.8684 85.1895 C 25.1462 85.1134 25.4294 85.0854 25.7178 85.1056 C 26.0063 85.1257 26.1481 85.1356 26.1434 85.1352 C 26.1434 85.1352 26.6981 85.3214 27.8074 85.6939 C 28.9172 86.0615 30.2472 86.4683 31.7973 86.9143 C 33.3427 87.3599 35.4866 87.9806 38.2289 88.7763 C 40.9713 89.572 43.8363 90.6517 46.8241 92.0154 C 49.8119 93.3791 52.1085 95.0311 53.714 96.9713 C 55.3194 98.9116 55.9526 100.79 55.6135 102.606 C 55.274 104.426 54.2217 105.965 52.4567 107.22 C 50.692 108.47 48.6233 109.443 46.2505 110.139 C 43.8781 110.83 41.3546 111.154 38.6798 111.111 C 36.005 111.069 33.4739 110.497 31.0864 109.396 C 28.6946 108.29 27.0278 106.781 26.086 104.868 C 25.14 102.951 24.7329 100.962 24.8649 98.9022 C 25.002 96.838 25.5358 94.9438 26.4663 93.2196 C 27.402 91.4908 28.4923 90.2268 29.737 89.4277 C 30.9822 88.6235 31.7092 88.1704 31.9179 88.0682 C 32.1314 87.9664 32.3497 87.8902 32.573 87.8394 C 32.8006 87.7941 33.0304 87.7765 33.2627 87.7867 C 33.4855 87.7961 33.708 87.8356 33.9303 87.9051 C 34.1526 87.9746 34.3631 88.0707 34.5617 88.1933 C 34.7608 88.311 34.941 88.4546 35.1022 88.6241 C 35.2682 88.794 35.4112 88.982 35.5312 89.188 C 35.6512 89.3941 35.7463 89.613 35.8165 89.8448 C 35.8867 90.0766 35.9302 90.3135 35.9472 90.5557 C 35.9641 90.7979 35.953 91.0351 35.9137 91.2674 C 35.8735 91.5096 35.8081 91.7421 35.7173 91.9649 C 35.6218 92.1873 35.5038 92.3951 35.3632 92.5885 C 35.2227 92.7818 35.0624 92.9559 34.8824 93.1107 C 34.7024 93.2655 34.6124 93.343 34.6124 93.343 Z" />
<path fill="#2c40a5" d="M 116.945 81.5411 C 116.945 81.5411 116.068 82.5905 114.315 84.6894 C 112.552 86.7924 110.669 88.9626 108.667 91.2002 C 106.664 93.4377 104.697 95.5004 102.768 97.3883 C 100.834 99.2708 99.0809 100.933 97.5088 102.376 C 95.9411 103.824 94.2791 105.071 92.5228 106.116 C 90.7665 107.162 89.7654 107.676 89.5195 107.66 C 89.2735 107.643 89.036 107.585 88.8068 107.485 C 88.5824 107.385 88.3775 107.252 88.1923 107.085 C 88.0074 106.914 87.8535 106.715 87.7305 106.488 C 87.607 106.267 87.5208 106.029 87.4716 105.774 C 87.4225 105.519 87.4139 105.262 87.4459 105.004 C 87.4779 104.746 87.5494 104.499 87.6604 104.263 C 87.7666 104.027 87.9063 103.816 88.0795 103.63 C 88.2527 103.445 88.4492 103.291 88.6691 103.17 C 88.8886 103.054 89.1213 102.976 89.3673 102.938 C 89.6133 102.899 89.8559 102.9 90.095 102.941 C 90.3383 102.987 90.5688 103.072 90.7863 103.197 C 91.0038 103.321 91.1947 103.478 91.3589 103.668 C 91.5232 103.858 91.6543 104.072 91.7524 104.311 C 91.8552 104.551 91.9168 104.8 91.9372 105.057 C 91.9575 105.315 91.9399 105.571 91.8843 105.827 C 91.8244 106.078 91.7278 106.313 91.5946 106.532 C 91.4656 106.756 91.3059 106.95 91.1156 107.114 C 90.9248 107.283 90.7137 107.413 90.4823 107.503 C 90.2504 107.598 90.0101 107.652 89.7616 107.666 C 89.5135 107.674 89.2712 107.643 89.0347 107.572 C 88.7987 107.497 88.58 107.385 88.3788 107.237 C 88.1777 107.089 88.0052 106.911 87.8616 106.703 C 87.718 106.495 87.6094 106.267 87.5358 106.02 C 87.4575 105.772 87.4225 105.519 87.4309 105.259 C 87.4346 104.998 87.4779 104.746 87.561 104.503 C 87.6445 104.254 87.7641 104.029 87.9196 103.827 C 88.0709 103.619 88.2503 103.444 88.4578 103.302 C 88.6653 103.16 88.8886 103.054 89.1278 102.984 C 89.3665 102.92 89.4859 102.888 89.4859 102.888 C 89.4859 102.888 89.953 102.605 90.8871 102.039 C 91.8256 101.479 93.039 100.467 94.5274 99.0019 C 96.0205 97.5373 97.6573 95.8697 99.438 93.9989 C 101.223 92.1335 103.044 90.0657 104.903 87.7955 C 106.761 85.5253 108.503 83.2825 110.128 81.0672 C 111.753 78.8519 112.649 77.6613 112.816 77.4953 C 112.982 77.3293 113.166 77.1848 113.367 77.0619 C 113.563 76.9386 113.774 76.8442 113.998 76.7785 C 114.218 76.7124 114.443 76.6743 114.672 76.6642 C 114.901 76.6541 115.126 76.6736 115.345 76.7228 C 115.569 76.7725 115.784 76.8488 115.989 76.952 C 116.194 77.0551 116.385 77.1821 116.562 77.3329 C 116.739 77.4887 116.895 77.6628 117.03 77.8552 C 117.166 78.0475 117.279 78.2554 117.368 78.4789 C 117.459 78.6974 117.52 78.9259 117.551 79.1643 C 117.588 79.4032 117.595 79.6445 117.574 79.8884 C 117.553 80.1223 117.507 80.354 117.435 80.5834 C 117.358 80.8124 117.258 81.0293 117.135 81.2343 C 117.008 81.4388 116.945 81.5411 116.945 81.5411 Z" />
<path fill="#2c40a5" d="M 94.5634 84.9986 C 94.5634 84.9986 95.2986 85.6795 96.7689 87.0413 C 98.2448 88.3936 99.8558 89.8605 101.602 91.4419 C 103.348 93.0184 105.011 94.3844 106.59 95.54 C 108.173 96.696 109.473 97.5615 110.488 98.1365 C 111.504 98.7065 112.466 99.1915 113.373 99.5915 C 114.28 99.9866 114.857 100.28 115.102 100.472 C 115.342 100.658 115.551 100.882 115.728 101.143 C 115.901 101.404 116.03 101.689 116.118 101.997 C 116.201 102.3 116.237 102.614 116.228 102.94 C 116.215 103.259 116.154 103.57 116.047 103.872 C 115.936 104.168 115.783 104.44 115.59 104.689 C 115.397 104.938 115.17 105.149 114.907 105.322 C 114.65 105.495 114.372 105.619 114.076 105.693 C 113.779 105.768 113.479 105.792 113.177 105.765 C 112.875 105.739 112.585 105.661 112.306 105.531 C 112.026 105.407 111.775 105.234 111.551 105.014 C 111.328 104.799 111.145 104.552 111.002 104.274 C 110.855 103.996 110.755 103.699 110.702 103.383 C 110.648 103.067 110.643 102.751 110.685 102.434 C 110.731 102.117 110.824 101.814 110.964 101.525 C 111.102 101.242 111.282 100.986 111.501 100.76 C 111.721 100.533 111.968 100.349 112.242 100.208 C 112.516 100.066 112.804 99.9757 113.107 99.9369 C 113.406 99.8928 113.705 99.9013 114.004 99.9625 C 114.303 100.024 114.584 100.136 114.846 100.299 C 115.108 100.457 115.34 100.656 115.543 100.894 C 115.741 101.132 115.899 101.399 116.016 101.695 C 116.132 101.991 116.201 102.3 116.22 102.623 C 116.24 102.941 116.213 103.254 116.138 103.564 C 116.058 103.878 115.936 104.168 115.77 104.434 C 115.603 104.705 115.4 104.941 115.159 105.141 C 114.918 105.34 114.654 105.495 114.369 105.606 C 114.079 105.711 113.781 105.768 113.476 105.776 C 113.176 105.785 112.88 105.742 112.588 105.646 C 112.297 105.551 112.151 105.503 112.151 105.503 C 112.151 105.503 111.652 105.194 110.655 104.575 C 109.652 103.961 108.686 103.283 107.757 102.54 C 106.832 101.797 105.482 100.849 103.708 99.6969 C 101.939 98.5447 100.13 97.2461 98.2818 95.8012 C 96.4334 94.3563 94.7177 93.0258 93.1348 91.8096 C 91.5514 90.5984 90.6751 89.9002 90.5057 89.7149 C 90.3358 89.5346 90.1892 89.3338 90.0658 89.1124 C 89.9471 88.8914 89.8531 88.6601 89.7837 88.4183 C 89.7149 88.1716 89.6749 87.9199 89.664 87.6632 C 89.6531 87.4065 89.6703 87.1547 89.7156 86.9079 C 89.7613 86.6562 89.8371 86.4145 89.9429 86.1831 C 90.044 85.9512 90.1723 85.7342 90.3279 85.5321 C 90.4788 85.3296 90.6513 85.1516 90.8455 84.998 C 91.0401 84.8394 91.249 84.7072 91.4724 84.6013 C 91.6952 84.5004 91.9276 84.4279 92.1693 84.3837 C 92.4063 84.3392 92.6478 84.3252 92.8937 84.3416 C 93.1302 84.3572 93.3641 84.4026 93.5955 84.478 C 93.8263 84.5583 94.0454 84.6651 94.2526 84.7985 C 94.4598 84.9319 94.5634 84.9986 94.5634 84.9986 Z" />
</svg>